<svg width="87" height="68" viewBox="0 0 87 68" fill="none" xmlns="http://www.w3.org/2000/svg">
<g filter="url(#filter0_d_1_1016)">
<path d="M53.3635 0.319287C54.2223 0.319287 54.6517 0.553505 54.6517 1.02194H55.0811V0.475432H55.6667C55.8488 0.501456 55.9399 0.592541 55.9399 0.748686V0.904831C55.4715 1.73761 54.6647 2.15399 53.5197 2.15399H52.5438C52.4137 2.36219 48.3929 3.07785 40.4816 4.30099H39.896C38.777 4.69135 38.2175 5.0687 38.2175 5.43304C35.0945 16.6755 32.1668 25.7449 29.4343 32.6413C27.6386 37.5599 26.5456 40.0192 26.1552 40.0192L26.3114 40.2925C25.7388 42.4264 25.0232 44.3132 24.1644 45.9527C23.3837 48.2949 22.629 50.1426 21.9003 51.4959C21.6921 51.4959 21.4579 52.1074 21.1976 53.3306H21.3538C25.5697 52.7581 28.068 52.4718 28.8487 52.4718C28.8487 52.3677 29.4603 52.1855 30.6834 51.9253C30.8656 52.0034 31.0608 52.0424 31.269 52.0424C31.5813 51.8602 31.8675 51.7691 32.1278 51.7691H33.377L34.3919 51.652C34.3919 51.7821 34.535 51.9123 34.8213 52.0424H35.5239L36.0705 51.652L36.4999 51.9253H37.0854L37.3587 51.7691V52.0424C37.3587 52.1725 36.695 52.4588 35.3678 52.9012L35.0945 52.7841C35.0945 53.2525 32.1148 54.0463 26.1552 55.1653C24.0212 55.6337 22.8892 55.92 22.7591 56.0241C20.6251 56.0241 18.7383 56.6357 17.0988 57.8588H17.8015C17.9056 57.5465 17.9576 57.3643 17.9576 57.3123H17.8015C17.6974 57.3123 17.6453 57.3513 17.6453 57.4294C17.333 57.2472 17.0598 57.1561 16.8256 57.1561C10.6578 58.7696 7.39178 59.5764 7.02745 59.5764C5.70021 59.5764 4.80238 59.147 4.33394 58.2882V57.8588C4.33394 57.1041 8.30263 55.972 16.24 54.4626C17.9316 54.3325 18.7774 53.9161 18.7774 53.2135C18.7774 53.0573 19.0246 52.8101 19.5191 52.4718L19.3629 51.4959C19.6752 51.2096 19.9094 51.0665 20.0656 51.0665L19.9094 50.52C20.4039 48.7243 20.9764 47.8265 21.627 47.8265H21.7832V47.6703L21.1976 47.0848V46.9677C21.562 46.7595 21.9914 45.7706 22.4858 44.0009C22.9282 42.986 23.3056 42.3223 23.6179 42.0101L23.8911 42.1272H24.1644V41.8539C24.1644 41.6197 23.9822 41.4766 23.6179 41.4245V40.9951C23.774 40.865 24.0082 40.2534 24.3205 39.1604C24.6849 38.8741 24.9711 38.731 25.1793 38.731C25.1793 38.5488 25.0362 38.4578 24.7499 38.4578V38.0284C25.6087 36.545 26.0381 35.3609 26.0381 34.4761C26.975 32.7845 27.5345 31.223 27.7167 29.7917C28.029 29.7917 28.4974 28.5686 29.122 26.1223C29.122 25.9401 29.4083 25.6538 29.9808 25.2635C29.9808 25.0553 29.9418 24.8731 29.8637 24.717C29.8637 23.9623 30.1369 23.5849 30.6834 23.5849V23.2726C30.5013 22.9083 30.3712 22.7261 30.2931 22.7261L32.1278 17.3391C32.6743 16.4803 33.0516 15.2051 33.2598 13.5136C33.442 13.4095 33.5851 13.3574 33.6892 13.3574V12.3815L35.3678 5.97955V5.43304H35.2507L21.9003 8.12655C20.9634 7.60606 20.495 7.08558 20.495 6.5651V6.1357C20.495 5.53714 22.6159 4.92557 26.8579 4.30099C27.7948 4.01472 31.243 3.29906 37.2025 2.15399L37.9442 2.31014C39.0112 1.91978 39.9481 1.72459 40.7548 1.72459H41.1842L41.6136 1.45134L42.5895 1.60748L43.8777 1.29519L44.5804 1.45134C46.8445 1.00893 48.9264 0.683626 50.8262 0.475432L51.0994 0.592541H52.3876C53.0382 0.592541 53.3635 0.501456 53.3635 0.319287ZM57.3452 0.592541C57.7356 0.748686 57.9308 0.891819 57.9308 1.02194C57.6185 1.20411 57.3322 1.29519 57.072 1.29519L56.2132 1.02194V0.748686C56.7337 0.644589 57.111 0.592541 57.3452 0.592541ZM44.6584 3.48123C46.7664 3.81954 47.8204 5.30292 47.8204 7.93137C47.2479 10.768 46.376 12.8499 45.205 14.1772H44.3071V13.6697C44.3071 13.3314 44.4633 13.1622 44.7756 13.1622V13.1232C44.2551 12.5767 43.9948 12.1863 43.9948 11.9521C43.9948 11.4837 44.0989 10.9502 44.3071 10.3516C44.3071 10.2996 44.2551 10.1694 44.151 9.96125C44.2551 9.05041 44.3071 8.30872 44.3071 7.73618C44.3071 7.05956 43.8907 6.25281 43.058 5.31593C43.2661 4.0928 43.7996 3.48123 44.6584 3.48123ZM69.6417 23.1555C70.9169 23.5459 71.5805 24.2225 71.6325 25.1854C70.4614 28.8288 69.9149 31.3792 69.993 32.8365L70.0711 33.6173C70.0971 34.2418 70.3834 34.5541 70.9299 34.5541H71.2031C72.9207 34.45 75.4451 32.6804 78.7762 29.2452C79.8171 28.1001 80.8451 26.6948 81.86 25.0293L82.0162 25.3416C82.0682 26.1483 81.9381 26.8249 81.6258 27.3714V27.6837H82.1723C81.1314 29.4794 79.7521 31.3271 78.0345 33.2269C75.5101 36.0896 73.3892 37.5209 71.6716 37.5209C69.8499 37.5209 68.5356 36.584 67.7289 34.7103C67.5728 34.0076 67.4817 33.4351 67.4556 32.9927L67.4166 32.2119C67.6769 30.6505 68.1843 28.7768 68.939 26.5907C68.7569 26.4866 68.6137 26.4346 68.5096 26.4346C66.0894 27.7878 63.7602 30.5464 61.5221 34.7103C61.0277 35.1267 60.6373 35.3349 60.351 35.3349H60.1168C59.6224 35.3349 59.245 35.0226 58.9848 34.398L58.9457 34.0857C58.8937 33.2009 59.5833 32.0558 61.0147 30.6505C60.9886 30.4683 61.2489 29.6356 61.7954 28.1522L61.6392 26.2784C61.6392 26.0182 61.2359 25.862 60.4291 25.81C57.3583 26.7729 53.3505 30.5204 48.4059 37.0524C47.5732 39.5508 46.8054 40.7999 46.1028 40.7999H45.8295C44.8406 40.5657 44.3201 40.0452 44.2681 39.2385C46.6103 35.7512 48.0676 32.2119 48.6401 28.6206C48.1457 26.4606 48.2368 25.1334 48.9134 24.6389H50.3187L51.2556 25.9271C51.0734 28.3213 50.9953 29.6356 51.0214 29.8698V30.0259H51.2946C53.3245 27.5796 55.0551 25.9661 56.4864 25.1854C56.4604 24.9252 57.5404 24.4047 59.7265 23.624H60.5462C62.0816 23.624 63.3048 24.5608 64.2156 26.4346H64.3327C67.0393 24.2485 68.8089 23.1555 69.6417 23.1555Z" fill="#FFA620"/>
</g>
<defs>
<filter id="filter0_d_1_1016" x="0.333939" y="0.319336" width="85.8384" height="67.2571" filterUnits="userSpaceOnUse" color-interpolation-filters="sRGB">
<feFlood flood-opacity="0" result="BackgroundImageFix"/>
<feColorMatrix in="SourceAlpha" type="matrix" values="0 0 0 0 0 0 0 0 0 0 0 0 0 0 0 0 0 0 127 0" result="hardAlpha"/>
<feOffset dy="4"/>
<feGaussianBlur stdDeviation="2"/>
<feComposite in2="hardAlpha" operator="out"/>
<feColorMatrix type="matrix" values="0 0 0 0 0 0 0 0 0 0 0 0 0 0 0 0 0 0 0.25 0"/>
<feBlend mode="normal" in2="BackgroundImageFix" result="effect1_dropShadow_1_1016"/>
<feBlend mode="normal" in="SourceGraphic" in2="effect1_dropShadow_1_1016" result="shape"/>
</filter>
</defs>
</svg>
